<mxfile host="app.diagrams.net" modified="2023-04-26T18:11:19.555Z" agent="Mozilla/5.0 (Windows NT 10.0; Win64; x64) AppleWebKit/537.36 (KHTML, like Gecko) Chrome/110.0.0.0 YaBrowser/23.3.2.806 Yowser/2.5 Safari/537.36" etag="Spxhc2aVDf5t4RHk_NPl" version="21.2.2" type="device">
  <diagram name="Страница 1" id="yiJoMPyrdf1ba_CERZzF">
    <mxGraphModel dx="1386" dy="1961" grid="1" gridSize="10" guides="1" tooltips="1" connect="1" arrows="1" fold="1" page="1" pageScale="1" pageWidth="827" pageHeight="1169" math="0" shadow="0">
      <root>
        <mxCell id="0" />
        <mxCell id="1" parent="0" />
        <mxCell id="HByLKehwgIJ2Myo1-E9i-52" style="edgeStyle=orthogonalEdgeStyle;rounded=0;orthogonalLoop=1;jettySize=auto;html=1;exitX=0.5;exitY=1;exitDx=0;exitDy=0;entryX=0.5;entryY=0;entryDx=0;entryDy=0;" edge="1" parent="1" source="HByLKehwgIJ2Myo1-E9i-4" target="HByLKehwgIJ2Myo1-E9i-43">
          <mxGeometry relative="1" as="geometry" />
        </mxCell>
        <mxCell id="HByLKehwgIJ2Myo1-E9i-4" value="vat isInit" style="rounded=1;whiteSpace=wrap;html=1;" vertex="1" parent="1">
          <mxGeometry x="890" y="-40" width="120" height="60" as="geometry" />
        </mxCell>
        <mxCell id="HByLKehwgIJ2Myo1-E9i-80" style="edgeStyle=orthogonalEdgeStyle;rounded=0;orthogonalLoop=1;jettySize=auto;html=1;exitX=0;exitY=0.5;exitDx=0;exitDy=0;entryX=0.556;entryY=0;entryDx=0;entryDy=0;entryPerimeter=0;" edge="1" parent="1" source="HByLKehwgIJ2Myo1-E9i-7" target="HByLKehwgIJ2Myo1-E9i-69">
          <mxGeometry relative="1" as="geometry">
            <mxPoint x="1145" y="750" as="targetPoint" />
          </mxGeometry>
        </mxCell>
        <mxCell id="HByLKehwgIJ2Myo1-E9i-81" style="edgeStyle=orthogonalEdgeStyle;rounded=0;orthogonalLoop=1;jettySize=auto;html=1;exitX=1;exitY=0.5;exitDx=0;exitDy=0;" edge="1" parent="1" source="HByLKehwgIJ2Myo1-E9i-7">
          <mxGeometry relative="1" as="geometry">
            <mxPoint x="1410" y="660" as="targetPoint" />
          </mxGeometry>
        </mxCell>
        <mxCell id="HByLKehwgIJ2Myo1-E9i-7" value="cashLife &amp;gt; 2min" style="rhombus;whiteSpace=wrap;html=1;" vertex="1" parent="1">
          <mxGeometry x="1240" y="540" width="141" height="80" as="geometry" />
        </mxCell>
        <mxCell id="HByLKehwgIJ2Myo1-E9i-8" value="false" style="text;html=1;align=center;verticalAlign=middle;resizable=0;points=[];autosize=1;strokeColor=none;fillColor=none;" vertex="1" parent="1">
          <mxGeometry x="790" y="210" width="50" height="30" as="geometry" />
        </mxCell>
        <mxCell id="HByLKehwgIJ2Myo1-E9i-9" value="true" style="text;html=1;align=center;verticalAlign=middle;resizable=0;points=[];autosize=1;strokeColor=none;fillColor=none;" vertex="1" parent="1">
          <mxGeometry x="1070" y="210" width="40" height="30" as="geometry" />
        </mxCell>
        <mxCell id="HByLKehwgIJ2Myo1-E9i-15" value="" style="rounded=0;whiteSpace=wrap;html=1;fillColor=none;" vertex="1" parent="1">
          <mxGeometry x="390" y="1230" width="740" height="750" as="geometry" />
        </mxCell>
        <mxCell id="HByLKehwgIJ2Myo1-E9i-16" value="&lt;font style=&quot;font-size: 22px;&quot;&gt;CachedInfoService&lt;/font&gt;" style="text;html=1;strokeColor=none;fillColor=none;align=center;verticalAlign=middle;whiteSpace=wrap;rounded=0;" vertex="1" parent="1">
          <mxGeometry x="705" y="1190" width="110" height="30" as="geometry" />
        </mxCell>
        <mxCell id="HByLKehwgIJ2Myo1-E9i-20" style="edgeStyle=orthogonalEdgeStyle;rounded=0;orthogonalLoop=1;jettySize=auto;html=1;exitX=1;exitY=0.25;exitDx=0;exitDy=0;entryX=0;entryY=0.25;entryDx=0;entryDy=0;" edge="1" parent="1" source="HByLKehwgIJ2Myo1-E9i-17" target="HByLKehwgIJ2Myo1-E9i-19">
          <mxGeometry relative="1" as="geometry">
            <Array as="points">
              <mxPoint x="150" y="1378" />
            </Array>
          </mxGeometry>
        </mxCell>
        <mxCell id="HByLKehwgIJ2Myo1-E9i-17" value="&lt;font style=&quot;font-size: 18px;&quot;&gt;EXTERNAL&lt;br&gt;JAVASCRIPT&lt;br&gt;CODE&lt;/font&gt;" style="rounded=0;whiteSpace=wrap;html=1;" vertex="1" parent="1">
          <mxGeometry x="20" y="1230" width="130" height="550" as="geometry" />
        </mxCell>
        <mxCell id="HByLKehwgIJ2Myo1-E9i-21" style="edgeStyle=orthogonalEdgeStyle;rounded=0;orthogonalLoop=1;jettySize=auto;html=1;entryX=1;entryY=0.75;entryDx=0;entryDy=0;" edge="1" parent="1" source="HByLKehwgIJ2Myo1-E9i-19" target="HByLKehwgIJ2Myo1-E9i-17">
          <mxGeometry relative="1" as="geometry">
            <Array as="points">
              <mxPoint x="280" y="1643" />
            </Array>
          </mxGeometry>
        </mxCell>
        <mxCell id="HByLKehwgIJ2Myo1-E9i-25" value="" style="edgeStyle=orthogonalEdgeStyle;rounded=0;orthogonalLoop=1;jettySize=auto;html=1;" edge="1" parent="1" source="HByLKehwgIJ2Myo1-E9i-19" target="HByLKehwgIJ2Myo1-E9i-24">
          <mxGeometry relative="1" as="geometry" />
        </mxCell>
        <mxCell id="HByLKehwgIJ2Myo1-E9i-19" value="&lt;font style=&quot;font-size: 21px;&quot;&gt;EntryPoint:&lt;br&gt;&lt;br&gt;GetInfo()&lt;/font&gt;" style="rounded=0;whiteSpace=wrap;html=1;" vertex="1" parent="1">
          <mxGeometry x="410" y="1250" width="120" height="510" as="geometry" />
        </mxCell>
        <mxCell id="HByLKehwgIJ2Myo1-E9i-22" value="string CoinID" style="text;html=1;strokeColor=none;fillColor=none;align=center;verticalAlign=middle;whiteSpace=wrap;rounded=0;" vertex="1" parent="1">
          <mxGeometry x="200" y="1350" width="130" height="30" as="geometry" />
        </mxCell>
        <mxCell id="HByLKehwgIJ2Myo1-E9i-23" value="object CoinInfo" style="text;html=1;strokeColor=none;fillColor=none;align=center;verticalAlign=middle;whiteSpace=wrap;rounded=0;" vertex="1" parent="1">
          <mxGeometry x="215" y="1610" width="100" height="30" as="geometry" />
        </mxCell>
        <mxCell id="HByLKehwgIJ2Myo1-E9i-31" style="edgeStyle=orthogonalEdgeStyle;rounded=0;orthogonalLoop=1;jettySize=auto;html=1;entryX=0;entryY=0.5;entryDx=0;entryDy=0;" edge="1" parent="1" source="HByLKehwgIJ2Myo1-E9i-24" target="HByLKehwgIJ2Myo1-E9i-30">
          <mxGeometry relative="1" as="geometry" />
        </mxCell>
        <mxCell id="HByLKehwgIJ2Myo1-E9i-24" value="Was CacheInfoService&lt;br&gt;Initialized ?" style="rhombus;whiteSpace=wrap;html=1;" vertex="1" parent="1">
          <mxGeometry x="570" y="1460" width="210" height="90" as="geometry" />
        </mxCell>
        <mxCell id="HByLKehwgIJ2Myo1-E9i-42" value="" style="edgeStyle=orthogonalEdgeStyle;rounded=0;orthogonalLoop=1;jettySize=auto;html=1;" edge="1" parent="1" source="HByLKehwgIJ2Myo1-E9i-30" target="HByLKehwgIJ2Myo1-E9i-37">
          <mxGeometry relative="1" as="geometry" />
        </mxCell>
        <mxCell id="HByLKehwgIJ2Myo1-E9i-30" value="call function: Initialization()" style="rounded=0;whiteSpace=wrap;html=1;" vertex="1" parent="1">
          <mxGeometry x="737" y="1350" width="120" height="40" as="geometry" />
        </mxCell>
        <mxCell id="HByLKehwgIJ2Myo1-E9i-32" value="REQUEST" style="text;html=1;strokeColor=none;fillColor=none;align=center;verticalAlign=middle;whiteSpace=wrap;rounded=0;" vertex="1" parent="1">
          <mxGeometry x="235" y="1380" width="60" height="30" as="geometry" />
        </mxCell>
        <mxCell id="HByLKehwgIJ2Myo1-E9i-33" value="RETURN" style="text;html=1;strokeColor=none;fillColor=none;align=center;verticalAlign=middle;whiteSpace=wrap;rounded=0;" vertex="1" parent="1">
          <mxGeometry x="230" y="1650" width="60" height="30" as="geometry" />
        </mxCell>
        <mxCell id="HByLKehwgIJ2Myo1-E9i-34" value="No" style="text;html=1;strokeColor=none;fillColor=none;align=center;verticalAlign=middle;whiteSpace=wrap;rounded=0;" vertex="1" parent="1">
          <mxGeometry x="630" y="1400" width="60" height="30" as="geometry" />
        </mxCell>
        <mxCell id="HByLKehwgIJ2Myo1-E9i-35" value="Scope: GetInfo()" style="text;html=1;strokeColor=none;fillColor=none;align=center;verticalAlign=middle;whiteSpace=wrap;rounded=0;" vertex="1" parent="1">
          <mxGeometry x="747" y="1320" width="100" height="30" as="geometry" />
        </mxCell>
        <mxCell id="HByLKehwgIJ2Myo1-E9i-37" value="call function:&lt;br&gt;ReadLocalStorage()" style="rounded=0;whiteSpace=wrap;html=1;" vertex="1" parent="1">
          <mxGeometry x="910" y="1350" width="120" height="40" as="geometry" />
        </mxCell>
        <mxCell id="HByLKehwgIJ2Myo1-E9i-38" value="" style="rounded=0;whiteSpace=wrap;html=1;dashed=1;fillColor=none;" vertex="1" parent="1">
          <mxGeometry x="410" y="1780" width="120" height="180" as="geometry" />
        </mxCell>
        <mxCell id="HByLKehwgIJ2Myo1-E9i-39" value="var wasInitialized: boolean" style="rounded=0;whiteSpace=wrap;html=1;" vertex="1" parent="1">
          <mxGeometry x="420" y="1830" width="100" height="50" as="geometry" />
        </mxCell>
        <mxCell id="HByLKehwgIJ2Myo1-E9i-40" value="var cachedInfoArray: any[]" style="rounded=0;whiteSpace=wrap;html=1;" vertex="1" parent="1">
          <mxGeometry x="420" y="1890" width="100" height="50" as="geometry" />
        </mxCell>
        <mxCell id="HByLKehwgIJ2Myo1-E9i-41" value="&lt;b&gt;&lt;span style=&quot;font-size: 14px;&quot;&gt;SERVICE&lt;br&gt;&lt;/span&gt;MEMORY&lt;/b&gt;" style="text;html=1;strokeColor=none;fillColor=none;align=center;verticalAlign=middle;whiteSpace=wrap;rounded=0;" vertex="1" parent="1">
          <mxGeometry x="440" y="1790" width="60" height="30" as="geometry" />
        </mxCell>
        <mxCell id="HByLKehwgIJ2Myo1-E9i-51" style="edgeStyle=orthogonalEdgeStyle;rounded=0;orthogonalLoop=1;jettySize=auto;html=1;exitX=0.5;exitY=1;exitDx=0;exitDy=0;" edge="1" parent="1" source="HByLKehwgIJ2Myo1-E9i-43" target="HByLKehwgIJ2Myo1-E9i-46">
          <mxGeometry relative="1" as="geometry" />
        </mxCell>
        <mxCell id="HByLKehwgIJ2Myo1-E9i-43" value="const cashArr" style="rounded=1;whiteSpace=wrap;html=1;" vertex="1" parent="1">
          <mxGeometry x="890" y="30" width="120" height="60" as="geometry" />
        </mxCell>
        <mxCell id="HByLKehwgIJ2Myo1-E9i-44" value="" style="endArrow=none;dashed=1;html=1;dashPattern=1 3;strokeWidth=2;rounded=0;" edge="1" parent="1">
          <mxGeometry width="50" height="50" relative="1" as="geometry">
            <mxPoint x="660" y="150" as="sourcePoint" />
            <mxPoint x="1260" y="150" as="targetPoint" />
          </mxGeometry>
        </mxCell>
        <mxCell id="HByLKehwgIJ2Myo1-E9i-50" style="edgeStyle=orthogonalEdgeStyle;rounded=0;orthogonalLoop=1;jettySize=auto;html=1;exitX=0.5;exitY=1;exitDx=0;exitDy=0;entryX=0;entryY=0.75;entryDx=0;entryDy=0;" edge="1" parent="1" source="HByLKehwgIJ2Myo1-E9i-45" target="HByLKehwgIJ2Myo1-E9i-47">
          <mxGeometry relative="1" as="geometry" />
        </mxCell>
        <mxCell id="HByLKehwgIJ2Myo1-E9i-45" value="fn init(){&lt;br&gt;&lt;br&gt;readFromLs()&lt;br&gt;cashArr.push&lt;br&gt;isInit = true&lt;br&gt;&lt;br&gt;}" style="rounded=1;whiteSpace=wrap;html=1;" vertex="1" parent="1">
          <mxGeometry x="737" y="260" width="120" height="150" as="geometry" />
        </mxCell>
        <mxCell id="HByLKehwgIJ2Myo1-E9i-48" style="edgeStyle=orthogonalEdgeStyle;rounded=0;orthogonalLoop=1;jettySize=auto;html=1;exitX=0;exitY=0.5;exitDx=0;exitDy=0;entryX=0.354;entryY=0.017;entryDx=0;entryDy=0;entryPerimeter=0;" edge="1" parent="1" source="HByLKehwgIJ2Myo1-E9i-46" target="HByLKehwgIJ2Myo1-E9i-45">
          <mxGeometry relative="1" as="geometry" />
        </mxCell>
        <mxCell id="HByLKehwgIJ2Myo1-E9i-49" style="edgeStyle=orthogonalEdgeStyle;rounded=0;orthogonalLoop=1;jettySize=auto;html=1;exitX=1;exitY=0.5;exitDx=0;exitDy=0;" edge="1" parent="1" source="HByLKehwgIJ2Myo1-E9i-46" target="HByLKehwgIJ2Myo1-E9i-47">
          <mxGeometry relative="1" as="geometry" />
        </mxCell>
        <mxCell id="HByLKehwgIJ2Myo1-E9i-46" value="isInit" style="rhombus;whiteSpace=wrap;html=1;" vertex="1" parent="1">
          <mxGeometry x="850" y="200" width="200" height="80" as="geometry" />
        </mxCell>
        <mxCell id="HByLKehwgIJ2Myo1-E9i-54" style="edgeStyle=orthogonalEdgeStyle;rounded=0;orthogonalLoop=1;jettySize=auto;html=1;exitX=0.5;exitY=1;exitDx=0;exitDy=0;" edge="1" parent="1" source="HByLKehwgIJ2Myo1-E9i-47" target="HByLKehwgIJ2Myo1-E9i-53">
          <mxGeometry relative="1" as="geometry" />
        </mxCell>
        <mxCell id="HByLKehwgIJ2Myo1-E9i-47" value="fn cashArr.findObjById(id)" style="rounded=1;whiteSpace=wrap;html=1;" vertex="1" parent="1">
          <mxGeometry x="1040" y="260" width="240" height="60" as="geometry" />
        </mxCell>
        <mxCell id="HByLKehwgIJ2Myo1-E9i-55" style="edgeStyle=orthogonalEdgeStyle;rounded=0;orthogonalLoop=1;jettySize=auto;html=1;exitX=0;exitY=0.5;exitDx=0;exitDy=0;" edge="1" parent="1" source="HByLKehwgIJ2Myo1-E9i-53">
          <mxGeometry relative="1" as="geometry">
            <mxPoint x="1020" y="430" as="targetPoint" />
          </mxGeometry>
        </mxCell>
        <mxCell id="HByLKehwgIJ2Myo1-E9i-56" style="edgeStyle=orthogonalEdgeStyle;rounded=0;orthogonalLoop=1;jettySize=auto;html=1;exitX=1;exitY=0.5;exitDx=0;exitDy=0;" edge="1" parent="1" source="HByLKehwgIJ2Myo1-E9i-53" target="HByLKehwgIJ2Myo1-E9i-71">
          <mxGeometry relative="1" as="geometry">
            <mxPoint x="1140" y="730" as="targetPoint" />
            <Array as="points">
              <mxPoint x="1291" y="380" />
            </Array>
          </mxGeometry>
        </mxCell>
        <mxCell id="HByLKehwgIJ2Myo1-E9i-53" value="" style="rhombus;whiteSpace=wrap;html=1;" vertex="1" parent="1">
          <mxGeometry x="1140" y="340" width="40" height="80" as="geometry" />
        </mxCell>
        <mxCell id="HByLKehwgIJ2Myo1-E9i-57" value="null" style="text;html=1;align=center;verticalAlign=middle;resizable=0;points=[];autosize=1;strokeColor=none;fillColor=none;" vertex="1" parent="1">
          <mxGeometry x="1095" y="350" width="40" height="30" as="geometry" />
        </mxCell>
        <mxCell id="HByLKehwgIJ2Myo1-E9i-58" value="obj{&lt;br style=&quot;border-color: var(--border-color);&quot;&gt;&lt;span style=&quot;&quot;&gt;timeStamp&lt;/span&gt;&lt;br style=&quot;border-color: var(--border-color);&quot;&gt;&lt;span style=&quot;&quot;&gt;}&lt;/span&gt;" style="text;html=1;align=center;verticalAlign=middle;resizable=0;points=[];autosize=1;strokeColor=none;fillColor=none;" vertex="1" parent="1">
          <mxGeometry x="1170" y="335" width="80" height="60" as="geometry" />
        </mxCell>
        <mxCell id="HByLKehwgIJ2Myo1-E9i-59" value="false" style="text;html=1;align=center;verticalAlign=middle;resizable=0;points=[];autosize=1;strokeColor=none;fillColor=none;" vertex="1" parent="1">
          <mxGeometry x="1191" y="554.5" width="50" height="30" as="geometry" />
        </mxCell>
        <mxCell id="HByLKehwgIJ2Myo1-E9i-62" style="edgeStyle=orthogonalEdgeStyle;rounded=0;orthogonalLoop=1;jettySize=auto;html=1;exitX=0.5;exitY=1;exitDx=0;exitDy=0;" edge="1" parent="1" source="HByLKehwgIJ2Myo1-E9i-60" target="HByLKehwgIJ2Myo1-E9i-61">
          <mxGeometry relative="1" as="geometry" />
        </mxCell>
        <mxCell id="HByLKehwgIJ2Myo1-E9i-60" value="fetch" style="rounded=1;whiteSpace=wrap;html=1;" vertex="1" parent="1">
          <mxGeometry x="980" y="430" width="80" height="60" as="geometry" />
        </mxCell>
        <mxCell id="HByLKehwgIJ2Myo1-E9i-64" style="edgeStyle=orthogonalEdgeStyle;rounded=0;orthogonalLoop=1;jettySize=auto;html=1;exitX=0.5;exitY=1;exitDx=0;exitDy=0;entryX=0.5;entryY=0;entryDx=0;entryDy=0;" edge="1" parent="1" source="HByLKehwgIJ2Myo1-E9i-61" target="HByLKehwgIJ2Myo1-E9i-63">
          <mxGeometry relative="1" as="geometry" />
        </mxCell>
        <mxCell id="HByLKehwgIJ2Myo1-E9i-65" style="edgeStyle=orthogonalEdgeStyle;rounded=0;orthogonalLoop=1;jettySize=auto;html=1;" edge="1" parent="1" source="HByLKehwgIJ2Myo1-E9i-61">
          <mxGeometry relative="1" as="geometry">
            <mxPoint x="1020" y="520" as="targetPoint" />
          </mxGeometry>
        </mxCell>
        <mxCell id="HByLKehwgIJ2Myo1-E9i-61" value="&amp;nbsp;cashArr" style="rounded=1;whiteSpace=wrap;html=1;" vertex="1" parent="1">
          <mxGeometry x="975" y="570" width="90" height="60" as="geometry" />
        </mxCell>
        <mxCell id="HByLKehwgIJ2Myo1-E9i-67" style="edgeStyle=orthogonalEdgeStyle;rounded=0;orthogonalLoop=1;jettySize=auto;html=1;exitX=1;exitY=0.5;exitDx=0;exitDy=0;entryX=0.325;entryY=-0.017;entryDx=0;entryDy=0;entryPerimeter=0;" edge="1" parent="1" source="HByLKehwgIJ2Myo1-E9i-66" target="HByLKehwgIJ2Myo1-E9i-69">
          <mxGeometry relative="1" as="geometry">
            <mxPoint x="1120" y="750" as="targetPoint" />
          </mxGeometry>
        </mxCell>
        <mxCell id="HByLKehwgIJ2Myo1-E9i-63" value="LS" style="rounded=1;whiteSpace=wrap;html=1;" vertex="1" parent="1">
          <mxGeometry x="975" y="640" width="90" height="60" as="geometry" />
        </mxCell>
        <mxCell id="HByLKehwgIJ2Myo1-E9i-66" value="obj{&lt;br&gt;timeStamp&lt;br&gt;}" style="rounded=1;whiteSpace=wrap;html=1;" vertex="1" parent="1">
          <mxGeometry x="975" y="500" width="90" height="60" as="geometry" />
        </mxCell>
        <mxCell id="HByLKehwgIJ2Myo1-E9i-68" value="" style="rounded=1;whiteSpace=wrap;html=1;" vertex="1" parent="1">
          <mxGeometry x="1095" y="760" width="90" height="60" as="geometry" />
        </mxCell>
        <mxCell id="HByLKehwgIJ2Myo1-E9i-100" style="edgeStyle=orthogonalEdgeStyle;rounded=0;orthogonalLoop=1;jettySize=auto;html=1;entryX=0.5;entryY=0;entryDx=0;entryDy=0;entryPerimeter=0;" edge="1" parent="1" source="HByLKehwgIJ2Myo1-E9i-69" target="HByLKehwgIJ2Myo1-E9i-98">
          <mxGeometry relative="1" as="geometry" />
        </mxCell>
        <mxCell id="HByLKehwgIJ2Myo1-E9i-69" value="obj{&lt;br style=&quot;border-color: var(--border-color);&quot;&gt;&lt;span style=&quot;&quot;&gt;timeStamp&lt;/span&gt;&lt;br style=&quot;border-color: var(--border-color);&quot;&gt;&lt;span style=&quot;&quot;&gt;}&lt;/span&gt;" style="text;html=1;align=center;verticalAlign=middle;resizable=0;points=[];autosize=1;strokeColor=none;fillColor=none;" vertex="1" parent="1">
          <mxGeometry x="1105" y="760" width="80" height="60" as="geometry" />
        </mxCell>
        <mxCell id="HByLKehwgIJ2Myo1-E9i-75" style="edgeStyle=orthogonalEdgeStyle;rounded=0;orthogonalLoop=1;jettySize=auto;html=1;exitX=0.5;exitY=1;exitDx=0;exitDy=0;entryX=0.5;entryY=0;entryDx=0;entryDy=0;" edge="1" parent="1" source="HByLKehwgIJ2Myo1-E9i-71" target="HByLKehwgIJ2Myo1-E9i-73">
          <mxGeometry relative="1" as="geometry" />
        </mxCell>
        <mxCell id="HByLKehwgIJ2Myo1-E9i-71" value="nowTimeStamp" style="rounded=1;whiteSpace=wrap;html=1;" vertex="1" parent="1">
          <mxGeometry x="1241" y="390" width="140" height="60" as="geometry" />
        </mxCell>
        <mxCell id="HByLKehwgIJ2Myo1-E9i-76" style="edgeStyle=orthogonalEdgeStyle;rounded=0;orthogonalLoop=1;jettySize=auto;html=1;exitX=0.5;exitY=1;exitDx=0;exitDy=0;entryX=0.5;entryY=0;entryDx=0;entryDy=0;" edge="1" parent="1" source="HByLKehwgIJ2Myo1-E9i-73" target="HByLKehwgIJ2Myo1-E9i-7">
          <mxGeometry relative="1" as="geometry" />
        </mxCell>
        <mxCell id="HByLKehwgIJ2Myo1-E9i-73" value="cashLife = newTimeStamp - obj.timeStamp.number()" style="rounded=1;whiteSpace=wrap;html=1;" vertex="1" parent="1">
          <mxGeometry x="1241" y="470" width="140" height="60" as="geometry" />
        </mxCell>
        <mxCell id="HByLKehwgIJ2Myo1-E9i-79" value="true" style="text;html=1;align=center;verticalAlign=middle;resizable=0;points=[];autosize=1;strokeColor=none;fillColor=none;" vertex="1" parent="1">
          <mxGeometry x="1381" y="555" width="40" height="30" as="geometry" />
        </mxCell>
        <mxCell id="HByLKehwgIJ2Myo1-E9i-84" style="edgeStyle=orthogonalEdgeStyle;rounded=0;orthogonalLoop=1;jettySize=auto;html=1;exitX=0.5;exitY=0;exitDx=0;exitDy=0;" edge="1" parent="1" source="HByLKehwgIJ2Myo1-E9i-82">
          <mxGeometry relative="1" as="geometry">
            <mxPoint x="1410" y="610" as="targetPoint" />
          </mxGeometry>
        </mxCell>
        <mxCell id="HByLKehwgIJ2Myo1-E9i-88" style="edgeStyle=orthogonalEdgeStyle;rounded=0;orthogonalLoop=1;jettySize=auto;html=1;exitX=0.5;exitY=1;exitDx=0;exitDy=0;entryX=0.5;entryY=0;entryDx=0;entryDy=0;" edge="1" parent="1" source="HByLKehwgIJ2Myo1-E9i-82" target="HByLKehwgIJ2Myo1-E9i-85">
          <mxGeometry relative="1" as="geometry" />
        </mxCell>
        <mxCell id="HByLKehwgIJ2Myo1-E9i-82" value="fetch" style="rounded=1;whiteSpace=wrap;html=1;" vertex="1" parent="1">
          <mxGeometry x="1370" y="610" width="80" height="60" as="geometry" />
        </mxCell>
        <mxCell id="HByLKehwgIJ2Myo1-E9i-89" style="edgeStyle=orthogonalEdgeStyle;rounded=0;orthogonalLoop=1;jettySize=auto;html=1;exitX=0.5;exitY=1;exitDx=0;exitDy=0;entryX=0.5;entryY=0;entryDx=0;entryDy=0;" edge="1" parent="1" source="HByLKehwgIJ2Myo1-E9i-85" target="HByLKehwgIJ2Myo1-E9i-86">
          <mxGeometry relative="1" as="geometry" />
        </mxCell>
        <mxCell id="HByLKehwgIJ2Myo1-E9i-85" value="obj{&lt;br&gt;timeStamp&lt;br&gt;}" style="rounded=1;whiteSpace=wrap;html=1;" vertex="1" parent="1">
          <mxGeometry x="1365" y="680" width="90" height="60" as="geometry" />
        </mxCell>
        <mxCell id="HByLKehwgIJ2Myo1-E9i-90" style="edgeStyle=orthogonalEdgeStyle;rounded=0;orthogonalLoop=1;jettySize=auto;html=1;exitX=0.5;exitY=1;exitDx=0;exitDy=0;entryX=0.5;entryY=0;entryDx=0;entryDy=0;" edge="1" parent="1" source="HByLKehwgIJ2Myo1-E9i-86" target="HByLKehwgIJ2Myo1-E9i-87">
          <mxGeometry relative="1" as="geometry" />
        </mxCell>
        <mxCell id="HByLKehwgIJ2Myo1-E9i-86" value="&amp;nbsp;cashArr" style="rounded=1;whiteSpace=wrap;html=1;" vertex="1" parent="1">
          <mxGeometry x="1365" y="750" width="90" height="60" as="geometry" />
        </mxCell>
        <mxCell id="HByLKehwgIJ2Myo1-E9i-87" value="LS" style="rounded=1;whiteSpace=wrap;html=1;" vertex="1" parent="1">
          <mxGeometry x="1365" y="820" width="90" height="60" as="geometry" />
        </mxCell>
        <mxCell id="HByLKehwgIJ2Myo1-E9i-93" value="" style="shape=curlyBracket;whiteSpace=wrap;html=1;rounded=1;labelPosition=left;verticalLabelPosition=middle;align=right;verticalAlign=middle;" vertex="1" parent="1">
          <mxGeometry x="950" y="440" width="20" height="250" as="geometry" />
        </mxCell>
        <mxCell id="HByLKehwgIJ2Myo1-E9i-94" value="fetchToLS FN" style="text;html=1;align=center;verticalAlign=middle;resizable=0;points=[];autosize=1;strokeColor=none;fillColor=none;" vertex="1" parent="1">
          <mxGeometry x="857" y="550" width="100" height="30" as="geometry" />
        </mxCell>
        <mxCell id="HByLKehwgIJ2Myo1-E9i-95" value="" style="shape=curlyBracket;whiteSpace=wrap;html=1;rounded=1;flipH=1;labelPosition=right;verticalLabelPosition=middle;align=left;verticalAlign=middle;" vertex="1" parent="1">
          <mxGeometry x="1460" y="620" width="20" height="240" as="geometry" />
        </mxCell>
        <mxCell id="HByLKehwgIJ2Myo1-E9i-96" value="fetchToLS FN" style="text;html=1;align=center;verticalAlign=middle;resizable=0;points=[];autosize=1;strokeColor=none;fillColor=none;" vertex="1" parent="1">
          <mxGeometry x="1490" y="725" width="100" height="30" as="geometry" />
        </mxCell>
        <mxCell id="HByLKehwgIJ2Myo1-E9i-97" value="start" style="strokeWidth=2;html=1;shape=mxgraph.flowchart.start_1;whiteSpace=wrap;" vertex="1" parent="1">
          <mxGeometry x="900" y="120" width="100" height="60" as="geometry" />
        </mxCell>
        <mxCell id="HByLKehwgIJ2Myo1-E9i-98" value="print to UI" style="strokeWidth=2;html=1;shape=mxgraph.flowchart.document2;whiteSpace=wrap;size=0.25;" vertex="1" parent="1">
          <mxGeometry x="1095" y="850" width="100" height="60" as="geometry" />
        </mxCell>
        <mxCell id="HByLKehwgIJ2Myo1-E9i-101" value="getMoreInfo()" style="text;html=1;align=center;verticalAlign=middle;resizable=0;points=[];autosize=1;strokeColor=none;fillColor=none;" vertex="1" parent="1">
          <mxGeometry x="710" y="120" width="100" height="30" as="geometry" />
        </mxCell>
      </root>
    </mxGraphModel>
  </diagram>
</mxfile>
